<svg width="512" height="512" viewBox="0 0 512 512" fill="none" xmlns="http://www.w3.org/2000/svg">
<g clip-path="url(#clip0_114_8)">
<path d="M298.791 0.879442C298.024 0.322998 297.256 0.322998 296.106 0.322998H212.478C205.956 0.322998 200.969 8.11321 200.969 17.0163C200.969 18.1292 200.969 19.2421 201.353 20.355L210.176 88.2411H298.407L307.614 20.355C308.765 11.4519 304.929 2.54877 298.791 0.879442ZM334.083 398.18L297.64 110.499H210.943L177.953 398.18C177.185 403.188 178.336 408.753 181.021 412.648L245.852 507.243C250.072 513.921 257.361 513.921 261.964 507.8L330.631 413.204C333.316 409.309 334.851 403.745 334.083 398.18Z" fill="#f7f7f7"/>
</g>
<defs>
<clipPath id="clip0_114_8">
<rect width="512" height="512" fill="white" transform="translate(0 0.322998)"/>
</clipPath>
</defs>
</svg>