<svg width="512" height="512" viewBox="0 0 512 512" fill="none" xmlns="http://www.w3.org/2000/svg">
<path d="M285.562 95.204H227.065C216.42 95.204 207.282 87.629 205.308 77.168L191.522 26.245C188.951 12.613 199.407 0 213.28 0H299.348C313.221 0 323.677 12.613 321.105 26.246L307.319 77.169C305.345 87.629 296.207 95.204 285.562 95.204Z" fill="#D5D5D5"/>
<path d="M299.348 0H255.067C268.94 0 279.396 12.613 276.824 26.246L263.038 77.169C261.064 87.629 251.926 95.205 241.281 95.205H285.562C296.207 95.205 305.345 87.63 307.319 77.169L321.105 26.246C323.677 12.613 313.221 0 299.348 0Z" fill="#CCCCCC"/>
<path d="M256 512L204.888 460.139L206.295 414.213L174.801 406.716L192.338 300.917L220.52 234.874L207.078 211.996L226.438 95.204H285.562L290.899 127.401L278.086 178.678L301.534 191.559L314.478 269.645L301.534 320.258L325.982 339.045L340.448 426.315L256 512Z" fill="#A6A6A6"/>
<path d="M325.982 339.045L301.535 320.258L314.478 269.645L301.535 191.559L278.086 178.678L290.899 127.401L285.562 95.204H241.281L296.167 426.315L233.859 489.535L256 512L340.448 426.315L325.982 339.045Z" fill="#989898"/>
<path d="M290.899 127.401L206.939 211.973L192.2 300.894L301.534 191.559L290.899 127.401ZM314.478 269.645L174.801 406.716L171.552 426.315L204.888 460.139L325.982 339.045L314.478 269.645Z" fill="#D5D5D5"/>
<path d="M290.899 127.401L252.954 165.623L263.55 229.544L301.535 191.559L290.899 127.401ZM314.478 269.645L276.392 307.02L287.997 377.03L325.982 339.045L314.478 269.645Z" fill="#CCCCCC"/>
</svg>
