<svg width="512" height="512" viewBox="0 0 512 512" fill="none" xmlns="http://www.w3.org/2000/svg">
<g clip-path="url(#clip0_81_154)">
<path d="M402.913 264.489C357.239 276.326 324.063 260.464 315.911 215.411L292.324 157.804L271.081 40.3898C270.514 37.2556 271.181 34.0296 272.95 31.3471C274.72 28.6646 277.463 26.7201 280.641 25.8965L340.744 10.3197L377.572 1.70629C384.159 -0.00112728 392.319 14.8996 394.66 21.0939L444.545 175.249C460.774 218.208 448.588 252.652 402.913 264.489Z" fill="#C6C6C6"/>
<path d="M444.544 175.251L429.121 99.5822L394.659 8.36239C393.53 5.3737 391.285 2.90225 388.366 1.43481C385.447 -0.0326314 382.065 -0.389688 378.888 0.433952L340.744 10.3197C343.921 9.49611 347.302 9.85405 350.221 11.3215C353.14 12.7889 355.385 15.2604 356.514 18.2491L419.563 185.136C433.449 221.892 416.881 259.166 383.204 277.321C389.861 277.229 396.481 276.34 402.912 274.675C448.587 262.838 460.774 218.208 444.544 175.251ZM66.3919 469.536C65.1395 469.212 63.9655 468.652 62.9368 467.889C61.9081 467.125 61.045 466.173 60.3968 465.087C59.7486 464.001 59.3279 462.802 59.1588 461.558C58.9897 460.315 59.0756 459.052 59.4114 457.84L99.5506 312.946C99.8862 311.735 100.465 310.599 101.254 309.604C102.044 308.609 103.028 307.775 104.15 307.148C105.273 306.52 106.513 306.113 107.798 305.95C109.083 305.786 110.39 305.869 111.642 306.193C112.894 306.518 114.068 307.078 115.097 307.841C116.125 308.605 116.988 309.557 117.637 310.643C118.285 311.729 118.706 312.927 118.875 314.171C119.044 315.414 118.959 316.677 118.623 317.889L78.4839 462.783C78.1484 463.994 77.5695 465.13 76.7803 466.125C75.9911 467.12 75.0069 467.955 73.884 468.582C72.7612 469.209 71.5216 469.616 70.2361 469.78C68.9506 469.944 67.6444 469.861 66.3919 469.536Z" fill="#C6C6C6"/>
<path d="M99.7575 510.014L65.4273 502.39L15.9143 489.557C4.4634 486.589 -2.33157 475.205 0.736826 464.129C3.80523 453.053 15.5747 446.481 27.0255 449.448L78.4828 462.785L110.869 472.451C122.32 475.419 115.951 485.53 112.883 496.606C109.816 507.683 111.208 512.982 99.7575 510.014Z" fill="#C6C6C6"/>
<path d="M110.869 471.178L76.5387 462.28C87.9896 465.248 94.7846 476.632 91.7162 487.708C88.6478 498.784 76.8781 505.357 65.4273 502.39L99.7577 511.287C111.209 514.255 122.979 507.682 126.046 496.607C129.116 485.531 122.32 474.146 110.869 471.178ZM445.607 431.34C444.355 431.664 443.049 431.747 441.763 431.583C440.478 431.42 439.238 431.013 438.115 430.386C436.993 429.759 436.008 428.924 435.219 427.929C434.43 426.934 433.851 425.799 433.515 424.588L393.376 279.693C392.698 277.247 393.053 274.64 394.362 272.447C395.671 270.253 397.827 268.653 400.357 267.997C402.886 267.342 405.581 267.685 407.848 268.951C410.116 270.217 411.771 272.303 412.448 274.749L452.588 419.644C452.923 420.855 453.009 422.118 452.84 423.362C452.671 424.605 452.25 425.804 451.602 426.89C450.954 427.976 450.091 428.928 449.062 429.691C448.033 430.455 446.86 431.015 445.607 431.34Z" fill="#C6C6C6"/>
<path d="M496.085 450.086L461.754 460.257L412.242 473.09C400.791 476.058 389.02 469.485 385.953 458.409C382.884 447.334 389.679 435.948 401.13 432.982L452.588 419.644L484.973 412.524C496.424 409.556 505.562 414.856 508.629 425.932C511.698 437.008 507.536 447.12 496.085 450.086Z" fill="#C6C6C6"/>
<path d="M484.974 411.25L450.643 420.148C462.094 417.18 473.865 423.752 476.932 434.828C480.001 445.904 473.205 457.29 461.754 460.257L496.085 451.359C507.536 448.391 514.331 437.007 511.264 425.931C508.197 414.855 496.425 408.284 484.974 411.25Z" fill="#C6C6C6"/>
<path d="M427.559 122.71C409.975 131.692 404.217 103.416 390.219 107.462C387.04 108.381 383.516 109.774 379.45 111.915C357.201 123.625 363.199 134.284 340.95 145.994C319.338 157.369 313.063 147.632 292.324 157.804L302.747 215.411C309.721 253.958 344.653 280.458 383.205 279.892C389.71 279.796 396.318 277.657 402.913 275.947C448.587 264.11 460.774 218.207 444.543 175.248L427.559 122.71Z" fill="#C6C6C6"/>
<path d="M429.121 99.5822C411.538 108.562 404.217 103.421 390.221 107.466L419.565 185.136C433.451 221.892 416.883 261.712 383.206 279.868C389.863 279.775 396.483 278.887 402.914 277.222C448.589 265.384 473.939 218.208 457.708 175.249L429.121 99.5822Z" fill="#C6C6C6"/>
<path d="M113.348 279.902C67.673 268.065 65.1891 265.415 81.4183 222.458L75.0432 158.518L117.34 46.5607C118.469 43.5719 120.714 41.1005 123.633 39.633C126.552 38.1656 129.933 37.8085 133.111 38.6322L193.214 54.209L231.359 65.369C237.946 67.0764 228.93 72.0929 227.755 78.589L196.088 253.61C187.937 298.662 159.022 291.74 113.348 279.902Z" fill="#C6C6C6"/>
<path d="M205.302 253.61L223.608 174.254L240.917 78.5896C241.484 75.4554 240.817 72.2294 239.048 69.5469C237.279 66.8644 234.535 64.9199 231.358 64.0964L193.213 54.2097C196.39 55.0333 199.134 56.9777 200.903 59.6602C202.672 62.3427 203.339 65.5687 202.772 68.7029L171.106 243.723C164.132 282.269 131.832 306.197 93.2825 305.632C99.0955 308.772 105.288 311.204 111.718 312.873C157.394 324.71 197.151 298.662 205.302 253.61Z" fill="#C6C6C6"/>
<path d="M200.272 193.483C180.402 192.757 200.059 165.53 185.845 162.264C182.617 161.523 178.846 161.025 174.218 160.912C148.896 160.293 148.579 172.425 123.259 171.806C98.6634 171.205 98.2609 159.739 75.0432 158.518L54.2921 213.447C40.4059 250.203 56.959 290.046 90.6376 308.2C96.3203 311.264 103.808 311.163 110.403 312.872H111.719C157.393 324.709 187.936 298.661 196.089 253.608L200.272 193.483Z" fill="#C6C6C6"/>
<path d="M223.608 174.254C203.739 173.529 200.057 165.533 185.845 162.267L171.106 243.723C164.132 282.269 129.2 308.743 90.6508 308.178C96.4638 311.317 102.656 313.75 109.086 315.419C154.761 327.256 201.1 298.662 209.252 253.608L223.608 174.254Z" fill="#C6C6C6"/>
</g>
<defs>
<clipPath id="clip0_81_154">
<rect width="512" height="512" fill="white"/>
</clipPath>
</defs>
</svg>
