<svg width="512" height="512" viewBox="0 0 512 512" fill="none" xmlns="http://www.w3.org/2000/svg">
<g clip-path="url(#clip0_145_34)">
<path d="M410.581 264.489C364.037 276.326 330.23 260.464 321.923 215.411L297.888 157.804L276.24 40.3898C275.662 37.2556 276.342 34.0296 278.145 31.3471C279.948 28.6646 282.743 26.7201 285.981 25.8966L347.228 10.3198L384.758 1.70629C391.47 -0.00112289 399.785 14.8996 402.17 21.0939L453.005 175.249C469.543 218.208 457.125 252.652 410.581 264.489Z" fill="#D2F0FF"/>
<path d="M453.005 175.251L437.287 99.5822L402.17 8.36239C401.019 5.3737 398.731 2.90225 395.757 1.43481C392.782 -0.0326314 389.337 -0.389688 386.098 0.433952L347.228 10.3206C350.466 9.49699 353.911 9.85405 356.886 11.3215C359.86 12.7889 362.148 15.2604 363.299 18.2491L427.548 185.136C441.698 221.892 424.815 259.166 390.497 277.321C397.281 277.229 404.026 276.34 410.58 274.675C457.124 262.838 469.543 218.208 453.005 175.251ZM67.6555 469.536C66.3792 469.212 65.1828 468.652 64.1346 467.889C63.0863 467.125 62.2068 466.173 61.5462 465.087C60.8857 464.001 60.457 462.802 60.2847 461.558C60.1124 460.315 60.1998 459.052 60.5421 457.84L101.445 312.946C101.787 311.735 102.377 310.599 103.181 309.604C103.986 308.609 104.988 307.775 106.133 307.148C107.277 306.52 108.54 306.113 109.85 305.95C111.159 305.786 112.49 305.869 113.767 306.193C115.043 306.518 116.239 307.078 117.287 307.841C118.335 308.605 119.215 309.557 119.875 310.643C120.536 311.729 120.965 312.927 121.137 314.171C121.31 315.414 121.223 316.677 120.881 317.889L79.9775 462.783C79.6357 463.994 79.0458 465.13 78.2415 466.125C77.4373 467.12 76.4344 467.955 75.2901 468.582C74.1459 469.209 72.8828 469.616 71.5728 469.78C70.2628 469.944 68.9317 469.861 67.6555 469.536Z" fill="#C6ECFF"/>
<path d="M101.656 510.014L66.6724 502.39L16.2171 489.557C4.54834 486.589 -2.37595 475.205 0.750849 464.129C3.87764 453.053 15.8711 446.481 27.5399 449.448L79.9764 462.785L112.979 472.451C124.648 475.419 118.158 485.53 115.031 496.606C111.906 507.683 113.325 512.982 101.656 510.014Z" fill="#D2F0FF"/>
<path d="M112.979 471.178L77.9953 462.28C89.6641 465.248 96.5884 476.632 93.4616 487.708C90.3348 498.784 78.3414 505.357 66.6726 502.39L101.656 511.287C113.325 514.255 125.32 507.682 128.445 496.607C131.573 485.531 124.648 474.146 112.979 471.178ZM454.088 431.339C452.811 431.664 451.48 431.747 450.17 431.583C448.861 431.42 447.597 431.013 446.453 430.386C445.309 429.759 444.306 428.924 443.502 427.929C442.697 426.934 442.107 425.799 441.765 424.588L400.862 279.693C400.172 277.247 400.533 274.64 401.867 272.447C403.201 270.253 405.398 268.653 407.976 267.997C410.553 267.341 413.299 267.685 415.61 268.951C417.921 270.217 419.607 272.303 420.298 274.749L461.201 419.644C461.543 420.855 461.63 422.118 461.458 423.362C461.286 424.605 460.857 425.804 460.196 426.89C459.536 427.976 458.656 428.928 457.608 429.691C456.56 430.455 455.364 431.015 454.088 431.339Z" fill="#C6ECFF"/>
<path d="M505.526 450.086L470.542 460.257L420.087 473.09C408.418 476.058 396.423 469.485 393.298 458.409C390.171 447.333 397.095 435.948 408.764 432.981L461.201 419.644L494.203 412.524C505.872 409.556 515.184 414.856 518.309 425.932C521.436 437.007 517.195 447.12 505.526 450.086Z" fill="#D2F0FF"/>
<path d="M494.203 411.25L459.22 420.148C470.889 417.18 482.883 423.752 486.009 434.828C489.136 445.904 482.211 457.29 470.542 460.256L505.526 451.359C517.195 448.391 524.119 437.007 520.994 425.931C517.868 414.855 505.872 408.284 494.203 411.25Z" fill="#C6ECFF"/>
<path d="M435.696 122.71C417.777 131.692 411.91 103.416 397.646 107.462C394.406 108.381 390.815 109.774 386.672 111.914C363.999 123.624 370.111 134.284 347.439 145.994C325.416 157.369 319.021 147.633 297.887 157.805L308.509 215.411C315.615 253.958 351.212 280.458 390.497 279.891C397.127 279.796 403.86 277.657 410.581 275.947C457.124 264.11 469.543 218.207 453.004 175.248L435.696 122.71Z" fill="#FFE077"/>
<path d="M437.288 99.5819C419.371 108.562 411.91 103.421 397.647 107.466L427.549 185.136C441.7 221.892 424.817 261.713 390.499 279.868C397.282 279.775 404.028 278.887 410.582 277.222C457.126 265.385 482.958 218.208 466.419 175.249L437.288 99.5819Z" fill="#FFD05B"/>
<path d="M115.505 279.902C68.9609 268.065 66.4297 265.415 82.9677 222.458L76.4714 158.518L119.573 46.5607C120.724 43.572 123.012 41.1005 125.986 39.6331C128.961 38.1656 132.406 37.8086 135.644 38.6322L196.891 54.209L235.762 65.369C242.474 67.0764 233.287 72.0929 232.089 78.589L199.819 253.61C191.513 298.662 162.048 291.74 115.505 279.902Z" fill="#D2F0FF"/>
<path d="M209.209 253.61L227.864 174.254L245.502 78.5897C246.08 75.4554 245.4 72.2294 243.597 69.5469C241.794 66.8645 238.999 64.92 235.761 64.0964L196.89 54.2097C200.128 55.0333 202.924 56.9778 204.726 59.6602C206.529 62.3427 207.209 65.5687 206.631 68.703L174.362 243.723C167.256 282.269 134.341 306.197 95.0578 305.632C100.981 308.772 107.291 311.204 113.844 312.873C160.389 324.71 200.903 298.662 209.209 253.61Z" fill="#C6ECFF"/>
<path d="M204.083 193.483C183.835 192.757 203.866 165.53 189.382 162.264C186.093 161.523 182.249 161.025 177.533 160.912C151.73 160.293 151.407 172.425 125.605 171.806C100.541 171.205 100.132 159.738 76.4724 158.517L55.3253 213.447C41.1749 250.203 58.0429 290.046 92.3625 308.2C98.1533 311.264 105.783 311.163 112.504 312.872H113.845C160.389 324.709 191.513 298.661 199.82 253.608L204.083 193.483Z" fill="#FFE077"/>
<path d="M227.865 174.253C207.618 173.528 203.865 165.533 189.382 162.267L174.363 243.723C167.257 282.269 131.659 308.743 92.3759 308.178C98.2995 311.318 104.61 313.75 111.162 315.419C157.706 327.256 204.927 298.662 213.234 253.608L227.865 174.253Z" fill="#FFD05B"/>
</g>
<defs>
<clipPath id="clip0_145_34">
<rect width="512" height="512" fill="white"/>
</clipPath>
</defs>
</svg>
