<svg width="512" height="512" viewBox="0 0 512 512" fill="none" xmlns="http://www.w3.org/2000/svg">
<g clip-path="url(#clip0_116_11)">
<path d="M351.458 141.933L445.598 35.4837L407.943 0H294.972L257.316 35.4837L351.458 141.933Z" fill="#ACE2FC"/>
<path d="M351.458 141.933L397.774 35.4837L379.246 0H323.667L305.141 35.4837L351.458 141.933Z" fill="#9ADCFC"/>
<path d="M445.598 35.4837L407.943 0H294.972L257.316 35.4837H445.598Z" fill="#9ADCFC"/>
<path d="M397.774 35.4837L379.246 0H323.667L305.141 35.4837H397.774Z" fill="#ACE2FC"/>
<path d="M351.458 422.051C262.933 422.051 190.915 354.189 190.915 270.773C190.915 187.358 262.933 119.495 351.458 119.495C439.982 119.495 512 187.358 512 270.773C512 354.189 439.982 422.051 351.458 422.051ZM351.458 152.204C282.074 152.204 225.627 205.394 225.627 270.773C225.627 336.153 282.074 389.342 351.458 389.342C420.841 389.342 477.288 336.153 477.288 270.773C477.288 205.394 420.84 152.204 351.458 152.204Z" fill="#FFC91B"/>
<path d="M160.542 512C72.0181 512 0 444.138 0 360.722C0 277.307 72.0181 209.444 160.542 209.444C249.067 209.444 321.085 277.307 321.085 360.722C321.085 444.138 249.067 512 160.542 512ZM160.542 242.153C91.1586 242.153 34.712 295.342 34.712 360.722C34.712 426.102 91.1586 479.291 160.542 479.291C229.926 479.291 286.373 426.102 286.373 360.722C286.373 295.342 229.926 242.153 160.542 242.153Z" fill="#FFC91B"/>
</g>
<defs>
<clipPath id="clip0_116_11">
<rect width="512" height="512" fill="white"/>
</clipPath>
</defs>
</svg>
