<svg width="512" height="512" viewBox="0 0 512 512" fill="none" xmlns="http://www.w3.org/2000/svg">
<g clip-path="url(#clip0_32_32)">
<path fill-rule="evenodd" clip-rule="evenodd" d="M255.999 0C303.679 0.544099 346.755 12.2628 385.224 35.1562C423.234 57.592 454.852 89.4039 477.056 127.55C499.81 166.251 511.458 209.586 512 257.557C510.649 323.193 489.947 379.253 449.894 425.735C409.841 472.219 358.543 500.975 305.44 511.999V327.978H355.645L366.998 255.662H290.976V208.296C290.555 198.477 293.659 188.831 299.731 181.102C305.81 173.352 316.516 169.279 331.85 168.882H377.756V105.535C377.097 105.323 370.847 104.484 359.005 103.02C345.575 101.449 332.071 100.609 318.55 100.506C287.947 100.647 263.745 109.28 245.943 126.403C228.14 143.521 219.045 168.288 218.66 200.703V255.662H160.807V327.978H218.66V512C153.456 500.977 102.158 472.22 62.1053 425.737C22.0524 379.254 1.35128 323.193 0 257.557C0.540648 209.584 12.1884 166.248 34.9433 127.55C57.147 89.4035 88.7657 57.5912 126.776 35.1551C165.244 12.2666 208.319 0.548913 255.999 0Z" fill="white"/>
</g>
<defs>
<clipPath id="clip0_32_32">
<rect width="512" height="512" fill="white"/>
</clipPath>
</defs>
</svg>
