<svg width="512" height="512" viewBox="0 0 512 512" fill="none" xmlns="http://www.w3.org/2000/svg">
<g clip-path="url(#clip0_32_34)">
<mask id="mask0_32_34" style="mask-type:luminance" maskUnits="userSpaceOnUse" x="0" y="0" width="512" height="512">
<path d="M512 0H0V512H512V0Z" fill="white"/>
</mask>
<g mask="url(#mask0_32_34)">
<path d="M511.5 150.529C510.3 123.324 505.901 104.622 499.597 88.4153C493.096 71.2129 483.094 55.8119 469.992 43.0084C457.187 30.0059 441.684 19.9019 424.681 13.5026C408.382 7.20141 389.776 2.80055 362.572 1.60231C335.163 0.300059 326.463 0 256.949 0C187.436 0 178.735 0.300059 151.428 1.50029C124.224 2.70053 105.522 7.10339 89.3194 13.4006C72.112 19.9019 56.711 29.9038 43.9075 43.0084C30.9049 55.8109 20.806 71.3139 14.4017 88.3173C8.10049 104.622 3.70063 123.224 2.50139 150.427C1.20014 177.836 0.899079 186.536 0.899079 256.05C0.899079 325.564 1.20014 334.265 2.39937 361.571C3.59961 388.776 8.00247 407.478 14.3047 423.685C20.806 440.887 30.9049 456.288 43.9075 469.092C56.711 482.094 72.214 492.198 89.2173 498.597C105.521 504.899 124.122 509.299 151.331 510.498C178.633 511.702 187.338 511.998 256.852 511.998C326.366 511.998 335.066 511.702 362.373 510.498C389.577 509.298 408.28 504.9 424.482 498.597C441.499 492.018 456.953 481.956 469.854 469.055C482.756 456.155 492.819 440.701 499.399 423.685C505.697 407.381 510.101 388.775 511.3 361.571C512.5 334.265 512.8 325.564 512.8 256.05C512.8 186.536 512.698 177.835 511.5 150.529ZM465.393 359.57C464.291 384.575 460.091 398.078 456.59 407.08C447.986 429.384 430.284 447.087 407.979 455.691C398.977 459.192 385.377 463.392 360.469 464.489C333.464 465.693 325.365 465.989 257.051 465.989C188.737 465.989 180.536 465.693 153.628 464.489C128.623 463.392 115.12 459.192 106.119 455.691C95.0195 451.588 84.9165 445.087 76.7149 436.585C68.2132 428.284 61.712 418.282 57.6092 407.182C54.1085 398.18 49.9087 384.575 48.8114 359.672C47.6072 332.667 47.3111 324.563 47.3111 256.249C47.3111 187.935 47.6072 179.734 48.8114 152.831C49.9087 127.826 54.1085 114.323 57.6092 105.322C61.712 94.2174 68.2132 84.1164 76.8169 75.9128C85.1145 67.4112 95.1165 60.9099 106.221 56.8121C115.222 53.3114 128.827 49.1106 153.73 48.0094C180.735 46.8091 188.839 46.5091 257.148 46.5091C325.565 46.5091 333.663 46.8091 360.571 48.0094C385.576 49.1116 399.079 53.3104 408.081 56.8111C419.18 60.9099 429.284 67.4112 437.484 75.9128C445.986 84.2155 452.487 94.2174 456.59 105.322C460.091 114.323 464.291 127.923 465.392 152.831C466.592 179.836 466.892 187.935 466.892 256.249C466.892 324.563 466.593 332.565 465.393 359.57Z" fill="white"/>
<path d="M256.95 124.524C184.338 124.524 125.424 183.434 125.424 256.05C125.424 328.666 184.338 387.576 256.95 387.576C329.564 387.576 388.476 328.666 388.476 256.05C388.476 183.434 329.564 124.524 256.95 124.524ZM256.95 341.367C209.843 341.367 171.632 303.161 171.632 256.05C171.632 208.939 209.843 170.733 256.949 170.733C304.06 170.733 342.267 208.939 342.267 256.05C342.267 303.161 304.059 341.367 256.95 341.367ZM424.385 119.323C424.385 136.281 410.635 150.029 393.675 150.029C376.719 150.029 362.97 136.281 362.97 119.323C362.97 102.364 376.719 88.6193 393.676 88.6193C410.635 88.6193 424.385 102.363 424.385 119.323Z" fill="white"/>
</g>
</g>
<defs>
<clipPath id="clip0_32_34">
<rect width="512" height="512" fill="white"/>
</clipPath>
</defs>
</svg>
