<svg xmlns="http://www.w3.org/2000/svg" version="1.2" viewBox="0 0 1578 1600" width="1578" height="1600">
	<title>Kellogg's-Logo-svg-pdf-svg</title>
	<defs>
		<clipPath clipPathUnits="userSpaceOnUse" id="cp1">
			<path d="m-5-3h1583v1604h-1583z"/>
		</clipPath>
	</defs>
	<style>
		.s0 { fill: #d31245 } 
	</style>
	<g id="Clip-Path: Page 1" clip-path="url(#cp1)">
		<g id="Page 1">
			<path id="Path 1" class="s0" d="m877.6 1500.6c14.6 0.8 17.5 14.9 15.1 23.1-18 55-90.5 76.2-145.5 76.2-59.5-0.2-207.7-50.4-207.7-210.6 0-196.2 103.6-337 121.1-453 9.3-64.5-8.2-96.4-36.9-111.5-27.4 52.5-158 296.1-181.7 335.1-59.2 98-158.6 295.6-306.5 295.6-70.4 0-135.2-46.8-135.2-133.1 0-132.8 157.2-216.4 349.5-423.8 132.6-143.2 218.1-268.2 218.1-312.3 0-13.8-5-18.1-12.2-18.1-21.8 0-78.1 48.9-102.3 71.5-62.4 57.3-189.9 287.6-318.7 287.6-66.1 0-97.5-56.9-97.5-102 0-101.7 79.2-179.8 408-349.5 184.3-95.3 336.8-200.5 356.4-214 96.5-67 195.8-27.4 115 78.3-67.2 88.4-247.2 383.2-247.2 383.2 46.7-6.4 94.3-8 191.7-92.7 124.9-108.6 235.6-237.6 418.9-501.9 66.7-96.1 179.5-161.4 248.3-111.3 69.4 50.2 59.5 150.6 9.3 229.8-49.9 78.8-440.3 440-704.1 546.2 69.3 71.2 61.1 195.2 42 271.7-19.1 76.2-67 236.9-67 311 0 67.4 21.8 122.9 68.6 125.6"/>
		</g>
	</g>
</svg>