<svg width="512" height="512" viewBox="0 0 512 512" fill="none" xmlns="http://www.w3.org/2000/svg">
<path d="M501.452 140.55C495.552 119.986 478.257 103.776 456.326 98.2391C416.26 87.9619 255.994 87.9619 255.994 87.9619C255.994 87.9619 95.7351 87.9619 55.669 97.8498C34.1593 103.381 16.4441 119.99 10.544 140.55C-2.03451e-06 178.108 0 256.001 0 256.001C0 256.001 -2.03451e-06 334.285 10.544 371.45C16.4497 392.011 33.7377 408.221 55.6722 413.758C96.1565 424.038 256 424.038 256 424.038C256 424.038 416.26 424.038 456.326 414.15C478.26 408.616 495.552 392.406 501.457 371.846C511.998 334.284 511.998 256.395 511.998 256.395C511.998 256.395 512.42 178.107 501.452 140.55ZM204.969 327.959V184.04L338.237 255.999L204.969 327.959Z" fill="white"/>
</svg>
